<svg width="64" height="64" viewBox="0 0 64 64" fill="none" xmlns="http://www.w3.org/2000/svg">
<mask id="path-1-outside-1_39_38" maskUnits="userSpaceOnUse" x="10" y="4" width="44" height="58" fill="black">
<rect fill="white" x="10" y="4" width="44" height="58"/>
<path d="M49.8701 53.768C46.2701 56.072 42.0941 57.224 37.3421 57.224C32.4461 57.224 28.7501 55.976 26.2541 53.48C23.8061 50.984 22.5821 47.48 22.5821 42.968V25.616H14.5901V17.768H22.5821V9.488L33.9581 8.12V17.768H46.2701L45.1181 25.616H33.9581V42.968C33.9581 44.84 34.3901 46.184 35.2541 47C36.1181 47.816 37.5101 48.224 39.4301 48.224C41.8301 48.224 44.0621 47.648 46.1261 46.496L49.8701 53.768Z"/>
</mask>
<path d="M49.8701 53.768C46.2701 56.072 42.0941 57.224 37.3421 57.224C32.4461 57.224 28.7501 55.976 26.2541 53.48C23.8061 50.984 22.5821 47.48 22.5821 42.968V25.616H14.5901V17.768H22.5821V9.488L33.9581 8.12V17.768H46.2701L45.1181 25.616H33.9581V42.968C33.9581 44.84 34.3901 46.184 35.2541 47C36.1181 47.816 37.5101 48.224 39.4301 48.224C41.8301 48.224 44.0621 47.648 46.1261 46.496L49.8701 53.768Z" fill="#FA4E42"/>
<path d="M49.8701 53.768L52.0263 57.1371C53.7647 56.0245 54.3711 53.772 53.4264 51.937L49.8701 53.768ZM26.2541 53.48L23.3983 56.2808C23.4074 56.2901 23.4165 56.2993 23.4256 56.3084L26.2541 53.48ZM22.5821 25.616H26.5821C26.5821 23.4069 24.7912 21.616 22.5821 21.616V25.616ZM14.5901 25.616H10.5901C10.5901 27.8251 12.3809 29.616 14.5901 29.616V25.616ZM14.5901 17.768V13.768C12.3809 13.768 10.5901 15.5589 10.5901 17.768H14.5901ZM22.5821 17.768V21.768C24.7912 21.768 26.5821 19.9771 26.5821 17.768H22.5821ZM22.5821 9.488L22.1045 5.51661C20.0945 5.75831 18.5821 7.46357 18.5821 9.488H22.5821ZM33.9581 8.12H37.9581C37.9581 6.97594 37.4682 5.88663 36.6123 5.12748C35.7564 4.36834 34.6164 4.01202 33.4805 4.14861L33.9581 8.12ZM33.9581 17.768H29.9581C29.9581 19.9771 31.7489 21.768 33.9581 21.768V17.768ZM46.2701 17.768L50.2277 18.3489C50.3965 17.199 50.0567 16.0325 49.2969 15.153C48.5371 14.2735 47.4323 13.768 46.2701 13.768V17.768ZM45.1181 25.616V29.616C47.1028 29.616 48.7874 28.1606 49.0757 26.1969L45.1181 25.616ZM33.9581 25.616V21.616C31.7489 21.616 29.9581 23.4069 29.9581 25.616H33.9581ZM35.2541 47L38.0006 44.0919L38.0006 44.0919L35.2541 47ZM46.1261 46.496L49.6824 44.665C49.1861 43.7011 48.3198 42.9799 47.2819 42.6666C46.2439 42.3533 45.1233 42.4748 44.1766 43.0032L46.1261 46.496ZM47.7139 50.3989C44.8281 52.2458 41.4182 53.224 37.3421 53.224V61.224C42.77 61.224 47.712 59.8982 52.0263 57.1371L47.7139 50.3989ZM37.3421 53.224C33.0888 53.224 30.577 52.1461 29.0825 50.6516L23.4256 56.3084C26.9232 59.8059 31.8033 61.224 37.3421 61.224V53.224ZM29.1098 50.6792C27.5908 49.1303 26.5821 46.7497 26.5821 42.968H18.5821C18.5821 48.2103 20.0213 52.8377 23.3983 56.2808L29.1098 50.6792ZM26.5821 42.968V25.616H18.5821V42.968H26.5821ZM22.5821 21.616H14.5901V29.616H22.5821V21.616ZM18.5901 25.616V17.768H10.5901V25.616H18.5901ZM14.5901 21.768H22.5821V13.768H14.5901V21.768ZM26.5821 17.768V9.488H18.5821V17.768H26.5821ZM23.0596 13.4594L34.4356 12.0914L33.4805 4.14861L22.1045 5.51661L23.0596 13.4594ZM29.9581 8.12V17.768H37.9581V8.12H29.9581ZM33.9581 21.768H46.2701V13.768H33.9581V21.768ZM42.3125 17.1871L41.1605 25.0351L49.0757 26.1969L50.2277 18.3489L42.3125 17.1871ZM45.1181 21.616H33.9581V29.616H45.1181V21.616ZM29.9581 25.616V42.968H37.9581V25.616H29.9581ZM29.9581 42.968C29.9581 45.3219 30.4839 47.9968 32.5076 49.9081L38.0006 44.0919C38.1432 44.2267 38.1386 44.3067 38.0902 44.156C38.0351 43.9845 37.9581 43.6154 37.9581 42.968H29.9581ZM32.5076 49.9081C34.4572 51.7494 37.0862 52.224 39.4301 52.224V44.224C38.7357 44.224 38.3056 44.1482 38.0711 44.0795C37.8497 44.0146 37.8827 43.9807 38.0006 44.0919L32.5076 49.9081ZM39.4301 52.224C42.5016 52.224 45.4061 51.4787 48.0755 49.9888L44.1766 43.0032C42.718 43.8173 41.1586 44.224 39.4301 44.224V52.224ZM42.5697 48.327L46.3137 55.599L53.4264 51.937L49.6824 44.665L42.5697 48.327Z" fill="black" mask="url(#path-1-outside-1_39_38)"/>
</svg>
